<?xml version="1.0" encoding="UTF-8"?><svg xmlns="http://www.w3.org/2000/svg" xmlns:xlink="http://www.w3.org/1999/xlink" contentScriptType="text/ecmascript" width="30" zoomAndPan="magnify" contentStyleType="text/css" viewBox="0 0 30 30.000001" height="30.000001" preserveAspectRatio="xMidYMid meet" version="1.0"><defs><clipPath id="clip-0"><path d="M 15 7 L 29.515625 7 L 29.515625 22 L 15 22 Z M 15 7 " clip-rule="nonzero"/></clipPath><clipPath id="clip-1"><path d="M 0.484375 0.691406 L 23 0.691406 L 23 23 L 0.484375 23 Z M 0.484375 0.691406 " clip-rule="nonzero"/></clipPath><clipPath id="clip-2"><path d="M 8 14 L 23 14 L 23 28.269531 L 8 28.269531 Z M 8 14 " clip-rule="nonzero"/></clipPath></defs><g clip-path="url(#clip-0)"><path fill="rgb(100%, 34.118652%, 34.118652%)" d="M 21.386719 10.292969 L 18.808594 12.867188 C 18.75 12.925781 18.671875 12.957031 18.597656 12.957031 C 18.519531 12.957031 18.445312 12.925781 18.386719 12.867188 C 18.269531 12.753906 18.269531 12.566406 18.386719 12.449219 L 20.96875 9.875 C 21.085938 9.757812 21.273438 9.757812 21.386719 9.875 C 21.503906 9.992188 21.503906 10.179688 21.386719 10.292969 Z M 18.125 13.550781 L 17.238281 14.433594 C 17.179688 14.492188 17.101562 14.523438 17.027344 14.523438 C 16.949219 14.523438 16.875 14.492188 16.816406 14.433594 C 16.699219 14.320312 16.699219 14.132812 16.816406 14.015625 L 17.703125 13.128906 C 17.820312 13.015625 18.007812 13.015625 18.125 13.128906 C 18.242188 13.246094 18.242188 13.433594 18.125 13.550781 Z M 21.726562 8.4375 C 21.71875 8.445312 21.710938 8.449219 21.703125 8.453125 C 21.632812 8.492188 21.566406 8.53125 21.503906 8.570312 C 21.484375 8.582031 21.464844 8.59375 21.445312 8.609375 C 21.390625 8.640625 21.339844 8.679688 21.285156 8.714844 C 21.261719 8.734375 21.234375 8.75 21.210938 8.769531 C 21.164062 8.800781 21.117188 8.839844 21.070312 8.875 C 21.042969 8.894531 21.015625 8.914062 20.992188 8.9375 C 20.945312 8.972656 20.898438 9.015625 20.851562 9.054688 C 20.828125 9.074219 20.804688 9.09375 20.78125 9.113281 C 20.714844 9.175781 20.648438 9.238281 20.582031 9.304688 L 15.851562 14.023438 C 15.503906 14.371094 15.515625 15.097656 15.886719 16.015625 C 16.296875 17.027344 17.082031 18.144531 18.097656 19.15625 C 19.113281 20.167969 20.230469 20.953125 21.246094 21.359375 C 22.167969 21.730469 22.894531 21.742188 23.242188 21.394531 L 27.972656 16.675781 C 28.960938 15.691406 29.503906 14.382812 29.503906 12.988281 C 29.503906 11.597656 28.960938 10.289062 27.972656 9.304688 C 26.988281 8.316406 25.675781 7.777344 24.277344 7.777344 C 23.664062 7.777344 23.066406 7.882812 22.503906 8.082031 C 22.5 8.085938 22.496094 8.089844 22.492188 8.089844 C 22.226562 8.1875 21.96875 8.304688 21.726562 8.4375 " fill-opacity="1" fill-rule="nonzero"/></g><g clip-path="url(#clip-1)"><path fill="rgb(100%, 34.118652%, 34.118652%)" d="M 9.433594 19.703125 C 9.523438 19.578125 9.617188 19.457031 9.714844 19.339844 C 9.726562 19.324219 9.738281 19.3125 9.75 19.296875 C 9.851562 19.179688 9.957031 19.066406 10.066406 18.953125 L 10.773438 18.25 L 10.773438 17.304688 C 10.0625 17.953125 9.125 18.292969 8.429688 18.464844 C 8.203125 18.523438 7.964844 18.464844 7.792969 18.308594 C 7.617188 18.152344 7.535156 17.921875 7.566406 17.691406 C 7.625 17.269531 7.742188 16.699219 7.980469 16.125 C 7.882812 16.136719 7.785156 16.144531 7.6875 16.148438 C 5.925781 16.222656 4.230469 15.4375 3.378906 14.960938 C 3.164062 14.84375 3.03125 14.625 3.019531 14.378906 C 3.007812 14.132812 3.125 13.90625 3.332031 13.769531 C 4.078125 13.269531 5.519531 12.449219 7.125 12.269531 C 5.796875 10.929688 5.132812 9.082031 4.851562 8.097656 C 4.78125 7.851562 4.851562 7.597656 5.03125 7.414062 C 5.214844 7.234375 5.472656 7.167969 5.71875 7.234375 C 6.660156 7.5 8.390625 8.117188 9.714844 9.328125 C 9.703125 9.164062 9.699219 9.003906 9.699219 8.84375 C 9.699219 6.648438 10.53125 4.566406 11.023438 3.523438 C 11.144531 3.277344 11.386719 3.121094 11.660156 3.121094 C 11.933594 3.121094 12.175781 3.277344 12.296875 3.523438 C 12.789062 4.566406 13.621094 6.648438 13.621094 8.84375 C 13.621094 9.003906 13.617188 9.164062 13.605469 9.328125 C 14.929688 8.117188 16.660156 7.5 17.601562 7.234375 C 17.851562 7.167969 18.105469 7.234375 18.289062 7.414062 C 18.46875 7.597656 18.539062 7.851562 18.46875 8.097656 C 18.1875 9.082031 17.523438 10.929688 16.195312 12.269531 C 16.339844 12.285156 16.488281 12.308594 16.636719 12.335938 C 16.65625 12.339844 16.671875 12.34375 16.691406 12.347656 L 20.164062 8.882812 C 20.230469 8.816406 20.300781 8.75 20.371094 8.6875 C 20.390625 8.667969 20.410156 8.652344 20.429688 8.632812 C 20.484375 8.589844 20.535156 8.542969 20.585938 8.5 C 20.621094 8.472656 20.65625 8.445312 20.691406 8.417969 C 20.730469 8.390625 20.765625 8.359375 20.804688 8.328125 C 20.863281 8.285156 20.921875 8.246094 20.980469 8.203125 C 20.996094 8.191406 21.015625 8.179688 21.03125 8.167969 C 21.339844 7.960938 21.667969 7.785156 22.007812 7.640625 C 20.308594 3.472656 16.1875 0.691406 11.660156 0.691406 C 5.503906 0.691406 0.496094 5.6875 0.496094 11.828125 C 0.496094 16.726562 3.722656 21.054688 8.390625 22.480469 C 8.488281 21.484375 8.839844 20.546875 9.410156 19.738281 C 9.417969 19.726562 9.425781 19.714844 9.433594 19.703125 " fill-opacity="1" fill-rule="nonzero"/></g><g clip-path="url(#clip-2)"><path fill="rgb(100%, 34.118652%, 34.118652%)" d="M 17.675781 19.574219 C 16.605469 18.507812 15.773438 17.320312 15.335938 16.234375 C 15.132812 15.730469 15.023438 15.269531 15.007812 14.863281 L 12.765625 17.101562 L 12.460938 17.40625 L 10.488281 19.375 C 10.425781 19.433594 10.367188 19.496094 10.308594 19.558594 C 10.289062 19.582031 10.269531 19.605469 10.25 19.628906 C 10.214844 19.671875 10.175781 19.710938 10.140625 19.753906 C 10.121094 19.78125 10.097656 19.808594 10.074219 19.839844 C 10.046875 19.875 10.015625 19.914062 9.984375 19.953125 C 9.964844 19.984375 9.941406 20.015625 9.921875 20.042969 C 9.894531 20.082031 9.867188 20.121094 9.839844 20.164062 C 9.820312 20.191406 9.800781 20.222656 9.78125 20.25 C 9.753906 20.292969 9.726562 20.335938 9.703125 20.378906 C 9.683594 20.40625 9.667969 20.433594 9.652344 20.460938 C 9.625 20.507812 9.601562 20.554688 9.574219 20.601562 C 9.5625 20.625 9.546875 20.652344 9.535156 20.679688 C 9.507812 20.730469 9.484375 20.78125 9.460938 20.832031 C 9.449219 20.851562 9.4375 20.875 9.429688 20.898438 C 9.402344 20.953125 9.378906 21.011719 9.355469 21.070312 C 9.347656 21.085938 9.339844 21.105469 9.332031 21.121094 C 9.308594 21.183594 9.285156 21.25 9.261719 21.3125 C 9.257812 21.324219 9.25 21.335938 9.246094 21.351562 C 9.222656 21.417969 9.199219 21.488281 9.179688 21.558594 C 9.175781 21.566406 9.175781 21.574219 9.171875 21.585938 C 9.148438 21.660156 9.128906 21.734375 9.109375 21.808594 C 9.109375 21.8125 9.109375 21.816406 9.109375 21.820312 C 9.089844 21.902344 9.070312 21.980469 9.054688 22.0625 C 8.738281 23.707031 9.214844 25.476562 10.488281 26.746094 C 11.476562 27.730469 12.789062 28.273438 14.183594 28.273438 C 15.578125 28.273438 16.890625 27.730469 17.878906 26.746094 L 22.402344 22.234375 C 21.996094 22.21875 21.53125 22.113281 21.023438 21.910156 C 19.9375 21.472656 18.746094 20.644531 17.675781 19.574219 " fill-opacity="1" fill-rule="nonzero"/></g></svg>