<svg id="visual" viewBox="0 0 900 600" width="900" height="600" xmlns="http://www.w3.org/2000/svg" xmlns:xlink="http://www.w3.org/1999/xlink" version="1.1"><rect x="0" y="0" width="900" height="600" fill="#FF5733"></rect><defs><linearGradient id="grad1_0" x1="33.3%" y1="0%" x2="100%" y2="100%"><stop offset="20%" stop-color="#c00f4b" stop-opacity="1"></stop><stop offset="80%" stop-color="#c00f4b" stop-opacity="1"></stop></linearGradient></defs><defs><linearGradient id="grad1_1" x1="33.3%" y1="0%" x2="100%" y2="100%"><stop offset="20%" stop-color="#c00f4b" stop-opacity="1"></stop><stop offset="80%" stop-color="#ff5733" stop-opacity="1"></stop></linearGradient></defs><defs><linearGradient id="grad2_0" x1="0%" y1="0%" x2="66.7%" y2="100%"><stop offset="20%" stop-color="#c00f4b" stop-opacity="1"></stop><stop offset="80%" stop-color="#c00f4b" stop-opacity="1"></stop></linearGradient></defs><defs><linearGradient id="grad2_1" x1="0%" y1="0%" x2="66.7%" y2="100%"><stop offset="20%" stop-color="#ff5733" stop-opacity="1"></stop><stop offset="80%" stop-color="#c00f4b" stop-opacity="1"></stop></linearGradient></defs><g transform="translate(900, 0)"><path d="M0 540.8C-51.3 521.4 -102.5 502 -159.1 489.8C-215.8 477.6 -277.7 472.7 -317.9 437.5C-358.1 402.4 -376.4 337.1 -389.9 283.3C-403.5 229.5 -412.2 187.1 -436.5 141.8C-460.9 96.5 -500.9 48.3 -540.8 0L0 0Z" fill="#e33342"></path><path d="M0 270.4C-25.6 260.7 -51.3 251 -79.6 244.9C-107.9 238.8 -138.9 236.3 -158.9 218.8C-179 201.2 -188.2 168.6 -195 141.7C-201.7 114.7 -206.1 93.6 -218.3 70.9C-230.4 48.3 -250.4 24.1 -270.4 0L0 0Z" fill="#c00f4b"></path></g><g transform="translate(0, 600)"><path d="M0 -540.8C59.7 -535.3 119.3 -529.7 160.7 -494.5C202 -459.4 225.1 -394.5 258.6 -356C292.2 -317.4 336.2 -305.2 385.1 -279.8C434 -254.4 487.6 -215.9 514.4 -167.1C541.1 -118.3 541 -59.2 540.8 0L0 0Z" fill="#e33342"></path><path d="M0 -270.4C29.8 -267.6 59.7 -264.9 80.3 -247.3C101 -229.7 112.5 -197.3 129.3 -178C146.1 -158.7 168.1 -152.6 192.5 -139.9C217 -127.2 243.8 -108 257.2 -83.6C270.6 -59.2 270.5 -29.6 270.4 0L0 0Z" fill="#c00f4b"></path></g></svg>